PathFileType	4	(X/Y/Z)	Kaydara	
DataRate	CameraRate	NumFrames	NumMarkers	Units	OrigDataRate	OrigDataStartFrame	OrigNumFrames	
60.00	60.00	4	74	mm	60.00	299	242	
Frame#	Time	Z_lasi			Z_rasi			Z_rpsi			Z_lpsi			Z_fneck			Z_bneck			Z_fhead			Z_rhead			Z_lhead			Z_rshld			Z_relbtop			Z_relbext			Z_relblow			Z_rwrext			Z_rwrtop			Z_rwrlow			Z_lshld			Z_lelbext			Z_lelblow			Z_lelbtop			Z_lwrext			Z_lwrtop			Z_rtopleg			Z_ltopleg			Z_rkneefr			Z_rkneebk			Z_rkneeis			Z_lkneefr			Z_lknssbk			Z_lkneeis			Z_rankfr			Z_rankis			Z_rankbk			Z_lankfr			Z_lankbk			Z_lankis			A_lasi			A_rasi			A_rpsi			A_lpsi			A_fneck			A_bneck			A_fhead			A_rhead			A_lhead			A_rshld			A_relbtop			A_relbext			A_relblow			A_rwrext			A_rwrtop			A_rwrlow			A_lshld			A_lelbext			A_lelblow			A_lelbtop			A_lwrext			A_lwrtop			A_lwrlow			A_rtopleg			A_ltopleg			A_rkneefr			A_rkneebk			A_rkneeis			A_lkneefr			A_lknssbk			A_lkneeis			A_rankfr			A_rankis			A_rankbk			A_lankfr			A_lankbk			A_lankis			Z_lwrlow			
		X1	Y1	Z1	X2	Y2	Z2	X3	Y3	Z3	X4	Y4	Z4	X5	Y5	Z5	X6	Y6	Z6	X7	Y7	Z7	X8	Y8	Z8	X9	Y9	Z9	X10	Y10	Z10	X11	Y11	Z11	X12	Y12	Z12	X13	Y13	Z13	X14	Y14	Z14	X15	Y15	Z15	X16	Y16	Z16	X17	Y17	Z17	X18	Y18	Z18	X19	Y19	Z19	X20	Y20	Z20	X21	Y21	Z21	X22	Y22	Z22	X23	Y23	Z23	X24	Y24	Z24	X25	Y25	Z25	X26	Y26	Z26	X27	Y27	Z27	X28	Y28	Z28	X29	Y29	Z29	X30	Y30	Z30	X31	Y31	Z31	X32	Y32	Z32	X33	Y33	Z33	X34	Y34	Z34	X35	Y35	Z35	X36	Y36	Z36	X37	Y37	Z37	X38	Y38	Z38	X39	Y39	Z39	X40	Y40	Z40	X41	Y41	Z41	X42	Y42	Z42	X43	Y43	Z43	X44	Y44	Z44	X45	Y45	Z45	X46	Y46	Z46	X47	Y47	Z47	X48	Y48	Z48	X49	Y49	Z49	X50	Y50	Z50	X51	Y51	Z51	X52	Y52	Z52	X53	Y53	Z53	X54	Y54	Z54	X55	Y55	Z55	X56	Y56	Z56	X57	Y57	Z57	X58	Y58	Z58	X59	Y59	Z59	X60	Y60	Z60	X61	Y61	Z61	X62	Y62	Z62	X63	Y63	Z63	X64	Y64	Z64	X65	Y65	Z65	X66	Y66	Z66	X67	Y67	Z67	X68	Y68	Z68	X69	Y69	Z69	X70	Y70	Z70	X71	Y71	Z71	X72	Y72	Z72	X73	Y73	Z73	X74	Y74	Z74	

91	4.967	-184.57684	1094.67667	-199.16904	-385.59151	1102.85484	-134.48339	-475.28622	1124.31618	-310.07050	-238.68053	1117.28897	-387.60490	-311.13598	1460.72540	-212.33753	-329.40178	1517.96936	-322.64744	-340.27641	1665.49957	-124.31664	-431.34262	1646.76590	-263.96576	-285.59607	1662.01233	-285.23977	-520.24544	1446.77078	-261.01233	-543.26092	1165.46082	-126.14532	-579.74976	1103.14659	-164.48462	-521.50276	1093.34335	-187.33921	-478.59909	1003.11806	13.89403	-486.46847	1043.03955	37.09019	-447.98706	1059.30664	24.15339	-140.34381	1464.12964	-320.80589	-43.51220	1133.20908	-352.65797	-109.37353	1127.68661	-320.23727	-35.94985	1161.40930	-282.27268	-75.16205	974.72641	-123.44490	-31.41903	958.28682	-133.72182	-516.34407	922.91367	-269.72736	-148.05435	900.19478	-296.56414	-481.72546	414.25201	-209.77098	-515.33684	455.95055	-284.30408	-395.64487	433.75481	-255.76054	-183.99441	433.97629	-260.65348	-214.90803	459.50439	-362.24205	-279.25308	424.43718	-257.34518	-483.55778	189.12731	-307.72167	-418.22258	189.63028	-314.58069	-470.62962	202.37053	-380.97324	-199.45698	167.13137	-301.34436	-263.21356	170.12800	-351.43040	-265.22739	176.75816	-272.43505	24.66559	1018.82767	1151.63940	181.48966	1025.52612	1129.97940	217.18214	1035.96191	1289.74243	32.87249	1037.09671	1277.85629	97.53746	1362.51526	1167.39883	146.08562	1402.56332	1295.52811	52.85954	1576.64047	1119.59030	192.26053	1564.63882	1218.84644	46.19153	1527.35046	1281.90277	291.04191	1352.56821	1187.10739	313.14896	1079.94850	1080.81421	321.67400	1047.68410	1135.73952	260.86044	1058.05931	1102.47765	292.62903	869.69986	953.31116	267.05408	861.56746	988.92776	264.91810	891.59424	929.47464	-42.88651	1350.71594	1230.71556	-92.96602	1054.08104	1285.29144	-47.50239	1046.94679	1303.99429	-67.11928	1038.59276	1240.10620	-117.49372	825.40550	1326.99814	-136.17132	820.69153	1284.49814	-84.52425	813.58231	1300.46417	287.01168	856.09879	1257.37061	-58.67471	875.53345	1201.99326	90.74694	419.00364	1324.72168	190.16544	452.21497	1354.63470	178.95931	385.83389	1270.00587	124.88675	448.87337	1110.77347	4.17776	462.60994	1122.76512	69.72735	450.64201	1016.61377	161.14231	168.28409	1385.21896	90.05141	175.89943	1399.00955	143.75178	183.46470	1463.39905	48.89218	189.24017	983.32573	17.74618	169.59244	1042.95654	104.63592	176.75041	1036.25893	-43.51014	935.77164	-172.66712 
92	4.983	-180.49723	1093.88931	-200.37443	-381.42845	1101.81244	-135.28216	-472.09049	1124.57748	-309.93664	-235.99731	1116.97227	-388.35464	-305.93941	1460.25421	-212.18102	-324.10217	1517.76291	-322.32792	-333.50288	1665.64026	-124.49080	-424.74602	1647.38129	-264.11116	-278.96103	1661.34171	-285.40956	-515.00973	1448.14651	-259.95911	-536.58783	1171.00830	-120.24231	-573.28232	1106.75705	-155.59131	-515.50964	1096.73454	-180.29421	-468.33775	1015.99548	25.31052	-476.65825	1056.63727	46.95113	-438.68168	1073.19420	33.10400	-135.43314	1462.70935	-321.07811	-38.96607	1131.50894	-352.54875	-105.05595	1126.25809	-320.50282	-32.08431	1160.29816	-282.24239	-74.05381	975.95428	-122.00176	-30.07982	959.51271	-131.13807	-513.77975	923.32207	-268.91558	-145.35555	899.77455	-297.51045	-483.30296	414.80469	-200.82357	-517.37461	457.88193	-274.07120	-397.59140	435.27309	-246.01461	-182.46796	433.48145	-259.88651	-212.95496	459.12247	-361.57257	-278.04598	424.42616	-256.68520	-485.66849	192.28287	-303.88626	-420.37422	192.83848	-310.46915	-472.60544	207.29940	-376.40625	-198.98422	166.75522	-300.95757	-262.57788	170.10525	-351.11023	-264.86742	176.67328	-272.16478	24.72732	1016.93703	1144.06090	181.70729	1023.54996	1122.98050	216.72483	1033.78265	1282.81097	32.51005	1035.15045	1270.03983	98.76572	1360.74692	1160.83992	147.16608	1401.63071	1288.74481	54.89342	1574.31580	1111.60423	193.85134	1563.05298	1211.46454	47.55622	1526.48880	1274.25697	291.33442	1349.18259	1180.24956	307.59605	1083.76152	1060.06111	316.77322	1047.74734	1112.62573	255.38759	1061.50337	1081.36681	278.40794	882.31720	919.87862	252.16135	873.80653	955.13916	252.33095	907.40204	897.55753	-41.76743	1349.78455	1223.66608	-93.48132	1053.24669	1276.76163	-47.96500	1046.04744	1295.66971	-67.64859	1037.58553	1231.66779	-118.48659	825.16975	1320.33646	-137.00049	819.94514	1277.75047	-85.29250	813.04497	1293.92654	286.70177	854.57344	1250.70122	-58.62662	873.55392	1194.28673	90.69581	418.17207	1320.67352	189.99973	451.77605	1350.49362	179.22726	384.44126	1266.40663	124.09321	445.86620	1104.67636	3.33735	459.31072	1118.08884	67.61320	447.83043	1011.61125	161.10498	168.02523	1383.92441	89.89511	175.76107	1397.48672	143.84288	183.62652	1461.90430	48.97090	189.98791	969.45221	19.00859	167.93070	1028.79814	105.46264	176.38475	1021.19095	-41.33403	936.18179	-169.92025 
93	5.000	-176.66405	1093.18901	-201.69950	-377.60456	1101.76361	-135.36255	-469.09515	1124.91798	-309.77190	-233.51316	1116.67702	-389.06773	-300.80511	1459.74335	-212.34833	-318.90638	1517.70798	-322.09373	-327.05612	1665.53833	-124.36554	-418.43033	1647.92862	-263.94398	-272.49126	1660.73578	-285.20880	-509.72565	1449.56055	-258.73644	-530.38933	1176.42960	-114.61476	-567.22000	1110.56892	-147.06279	-509.64054	1100.28297	-172.28025	-458.98228	1028.58459	35.98114	-467.34459	1069.72397	55.90569	-429.83883	1086.53091	41.07415	-130.65275	1461.45142	-321.35357	-34.83223	1130.10445	-352.38731	-101.20562	1125.12993	-320.96104	-28.44678	1159.14223	-282.15658	-72.49002	976.17432	-121.37313	-28.33188	959.76379	-129.68998	-510.76996	923.54912	-268.34362	-142.80269	899.37973	-298.25325	-484.64916	415.73875	-191.74282	-519.22859	460.72762	-263.38104	-399.87106	437.01328	-235.02108	-181.11315	433.10242	-258.84073	-210.86546	458.76965	-360.95455	-276.76641	424.41662	-256.27720	-488.53168	196.36009	-299.56806	-423.33977	196.63172	-305.49179	-475.04013	213.11554	-371.57444	-198.46123	166.43991	-300.48807	-262.02301	170.07416	-350.83366	-264.55486	176.51022	-272.02858	24.72887	1014.94453	1135.99220	181.52044	1021.51436	1114.88976	216.17546	1031.37337	1275.26146	31.95394	1033.02742	1261.91856	99.72367	1358.96118	1154.19777	148.11225	1400.64835	1281.85501	56.95965	1571.61163	1103.19397	195.40791	1561.40823	1204.01146	48.83772	1525.62088	1266.54373	291.60116	1346.00754	1172.41699	301.78122	1088.47847	1039.51576	311.17397	1048.93318	1089.33403	249.36296	1066.32225	1059.82399	263.51934	897.14432	886.97334	236.76594	888.43170	921.75041	239.01579	925.48454	866.83517	-40.88081	1348.77487	1216.71951	-93.89604	1052.29675	1268.02841	-48.39179	1044.59244	1286.70822	-68.10303	1036.64871	1222.74750	-119.31719	824.38927	1312.09961	-137.68134	819.10286	1269.72923	-85.88089	812.31293	1286.34750	286.37476	852.85423	1243.40591	-58.81763	871.36040	1185.93971	90.71229	416.86432	1315.80826	189.96140	450.81108	1345.49545	179.47126	382.78278	1262.28050	123.25222	443.01212	1098.18031	2.45686	455.96603	1112.55135	65.65321	445.03139	1005.55244	161.17855	167.78736	1382.46658	89.82488	175.52324	1395.65002	143.25888	184.66236	1460.25787	49.09486	190.08204	957.18376	20.27603	166.12280	1016.37558	106.66710	175.99241	1007.55257	-39.06854	935.89394	-168.22681 
94	5.017	-173.04920	1092.62009	-203.01121	-373.38596	1102.41066	-135.12172	-466.31969	1125.31021	-309.73866	-231.11156	1116.33911	-389.84028	-295.77175	1459.26727	-212.29368	-314.09008	1517.61795	-321.89308	-320.68974	1665.17334	-123.97921	-412.21523	1648.37738	-263.45251	-266.11633	1660.13214	-284.93893	-504.74270	1451.07346	-257.34402	-524.51332	1181.75354	-109.34295	-561.37005	1114.50340	-138.98148	-504.04297	1104.03214	-164.45538	-448.62534	1039.90456	44.67598	-458.49380	1082.31300	64.21870	-421.53049	1099.28238	48.25847	-126.17450	1460.48309	-321.84593	-31.09516	1128.92113	-352.36954	-97.61235	1123.97568	-321.12877	-25.14705	1157.98096	-282.05042	-70.44109	975.35606	-121.48327	-26.25341	959.06387	-129.23904	-509.01833	924.73160	-267.87678	-140.19630	898.90984	-298.90970	-487.25456	418.01201	-181.20853	-521.30260	464.17114	-252.46374	-401.98029	439.00841	-223.67390	-179.71132	432.61559	-257.92080	-209.03603	458.49857	-360.32303	-275.42105	424.39037	-255.71604	-491.73073	201.00998	-294.58118	-426.72928	200.90258	-299.93481	-477.82631	219.34233	-366.19530	-198.20324	166.05452	-299.99851	-261.41647	170.06178	-350.60520	-264.17095	176.39816	-271.80262	24.68957	1013.03116	1127.30423	181.53406	1019.59785	1106.50536	215.35467	1028.82118	1266.49475	31.63898	1030.83458	1253.41614	100.60654	1357.20947	1147.20459	148.87082	1399.49539	1274.82323	58.85065	1569.25751	1095.06393	196.99993	1559.62219	1196.34109	50.05493	1524.97986	1258.87100	291.40858	1343.20007	1164.46777	295.78003	1094.15085	1019.19998	305.08652	1051.32858	1066.24374	242.89822	1072.45682	1038.58444	248.31415	914.19533	854.90005	220.92180	904.24370	888.80318	225.81358	945.59082	837.21832	-39.94976	1347.71179	1209.98093	-94.31828	1051.09398	1259.18129	-48.82116	1043.01636	1277.54318	-68.95926	1035.61012	1213.83591	-120.32619	823.17581	1302.74918	-138.71892	817.77725	1260.35080	-87.11585	811.24863	1276.86218	285.86948	851.02852	1235.10109	-58.98510	869.01253	1177.33604	90.68646	415.79193	1310.41290	189.82727	450.20638	1339.89151	179.75691	381.04130	1257.43385	122.94571	440.52498	1090.61012	1.96963	452.75932	1106.13876	64.16809	442.11788	998.80592	161.34762	167.65285	1380.68787	89.88559	175.44693	1393.54797	143.46506	185.32452	1457.90329	49.16842	189.29092	946.59103	21.72536	164.04400	1005.89462	107.99710	175.06184	995.59242	-36.47802	934.93408	-167.76468 
